<?xml version="1.0" encoding="utf-8"?>
<!-- Generator: Adobe Illustrator 21.0.0, SVG Export Plug-In . SVG Version: 6.00 Build 0)  -->
<svg version="1.1" id="Layer_1" xmlns="http://www.w3.org/2000/svg" xmlns:xlink="http://www.w3.org/1999/xlink" x="0px" y="0px"
	 viewBox="0 0 300 377" style="enable-background:new 0 0 300 377;" xml:space="preserve" preserveAspectRatio="none">
<style type="text/css">
	.st0{fill:#FFFFFF;}
</style>
<g>
	<path class="st0" d="M300,351H39.1c-4.3,0-7.9-3.4-7.9-7.5c0-4.1,3.5-7.5,7.9-7.5H300v-21H39.1c-4.3,0-7.9-3.4-7.9-7.5
		c0-4.1,3.5-7.5,7.9-7.5H300v-21H39.1c-4.3,0-7.9-3.4-7.9-7.5c0-4.1,3.5-7.5,7.9-7.5H300v-72.6H39.1c-4.3,0-7.9-3.4-7.9-7.5
		c0-4.1,3.5-7.5,7.9-7.5H300v-21H39.1c-4.3,0-7.9-3.4-7.9-7.5c0-4.1,3.5-7.5,7.9-7.5H300v-21H39.1c-4.3,0-7.9-3.4-7.9-7.5
		c0-4.1,3.5-7.5,7.9-7.5H300V46H38.9c-4.1,0-7.5-3.4-7.5-7.5s3.4-7.5,7.5-7.5H300V0H0v377h300V351z"/>
</g>
</svg>
