<?xml version="1.0" encoding="utf-8"?>
<!-- Generator: Adobe Illustrator 21.0.0, SVG Export Plug-In . SVG Version: 6.00 Build 0)  -->
<svg version="1.1" id="Layer_1" xmlns="http://www.w3.org/2000/svg" xmlns:xlink="http://www.w3.org/1999/xlink" x="0px" y="0px"
	 viewBox="0 0 93.2 377" style="enable-background:new 0 0 93.2 377;" xml:space="preserve" preserveAspectRatio="none">
<style type="text/css">
	.st0{fill:#FFFFFF;}
</style>
<path class="st0" d="M0,0v31.1h56.1c4.2,0,7.6,3.4,7.6,7.5s-3.4,7.5-7.6,7.5H0v58.3h55.8c4.4,0,8,3.4,8,7.5c0,4.1-3.7,7.5-8.1,7.5H0
	v21h55.8c4.4,0,8,3.4,8,7.5c0,4.1-3.7,7.5-8.1,7.5H0v21h55.8c4.4,0,8,3.4,8,7.5c0,4.1-3.7,7.5-8.1,7.5H0V264h55.8c4.4,0,8,3.4,8,7.5
	c0,4.1-3.7,7.5-8.1,7.5H0v21h55.8c4.4,0,8,3.4,8,7.5c0,4.1-3.7,7.5-8.1,7.5H0v21h55.8c4.4,0,8,3.4,8,7.5c0,4.1-3.7,7.5-8.1,7.5H0v26
	h93.2V0H0z"/>
</svg>
