<?xml version="1.0" encoding="UTF-8"?>
<!DOCTYPE svg PUBLIC "-//W3C//DTD SVG 1.1//EN" "http://www.w3.org/Graphics/SVG/1.1/DTD/svg11.dtd">
<!-- Creator: CorelDRAW X8 -->
<svg xmlns="http://www.w3.org/2000/svg" xml:space="preserve" width="8.26772in" height="11.6929in" version="1.1" style="shape-rendering:geometricPrecision; text-rendering:geometricPrecision; image-rendering:optimizeQuality; fill-rule:evenodd; clip-rule:evenodd"
viewBox="0 0 8268 11693"
 xmlns:xlink="http://www.w3.org/1999/xlink">
 <defs>
  <style type="text/css">
   <![CDATA[
    .fil0 {fill:#E7302A}
    .fil1 {fill:white}
   ]]>
  </style>
 </defs>
 <g id="Layer_x0020_1">
  <metadata id="CorelCorpID_0Corel-Layer"/>
  <path class="fil0" d="M4134 5245c332,0 602,269 602,601 0,333 -270,602 -602,602 -333,0 -602,-269 -602,-602 0,-332 269,-601 602,-601z"/>
  <path class="fil1" d="M4158 5656c105,0 190,85 190,190 0,54 -22,102 -58,137l28 30 166 -357 34 73 0 0 143 307 -67 0 -43 -91 -133 0 -54 115 -3 0 -65 0 -12 0 -41 -44c-25,13 -54,20 -85,20 -84,0 -156,-56 -181,-132 -24,76 -96,132 -181,132 -105,0 -190,-85 -190,-190 0,-105 85,-190 190,-190 58,0 111,26 145,67l0 0 -49 38c-24,-26 -58,-42 -96,-42 -70,0 -127,57 -127,127 0,70 57,127 127,127 54,0 100,-33 119,-80l-85 0 0 -55 139 0c4,-101 87,-182 189,-182zm369 237l-43 -91 -42 91 85 0zm-320 0l41 44c23,-23 38,-55 38,-91 0,-70 -57,-127 -128,-127 -70,0 -127,57 -127,127 0,70 57,127 127,127 14,0 28,-2 40,-6l-68 -74 77 0z"/>
 </g>
</svg>
