<?xml version="1.0" encoding="UTF-8" standalone="no"?>
<svg width="79px" height="79px" viewBox="0 0 79 79" version="1.1" xmlns="http://www.w3.org/2000/svg" xmlns:xlink="http://www.w3.org/1999/xlink">
    <!-- Generator: Sketch 3.7.2 (28276) - http://www.bohemiancoding.com/sketch -->
    <title>apps</title>
    <desc>Created with Sketch.</desc>
    <defs></defs>
    <g id="Facilitator_Mobile" stroke="none" stroke-width="1" fill="none" fill-rule="evenodd">
        <g id="A_m_PORT_CompCall" transform="translate(-336.000000, -912.000000)" fill="#FFFFFF">
            <g id="apps" transform="translate(336.000000, 912.000000)">
                <path d="M0,19.75 L19.75,19.75 L19.75,0 L0,0 L0,19.75 L0,19.75 Z M29.625,79 L49.375,79 L49.375,59.25 L29.625,59.25 L29.625,79 L29.625,79 Z M0,79 L19.75,79 L19.75,59.25 L0,59.25 L0,79 L0,79 Z M0,49.375 L19.75,49.375 L19.75,29.625 L0,29.625 L0,49.375 L0,49.375 Z M29.625,49.375 L49.375,49.375 L49.375,29.625 L29.625,29.625 L29.625,49.375 L29.625,49.375 Z M59.25,0 L59.25,19.75 L79,19.75 L79,0 L59.25,0 L59.25,0 Z M29.625,19.75 L49.375,19.75 L49.375,0 L29.625,0 L29.625,19.75 L29.625,19.75 Z M59.25,49.375 L79,49.375 L79,29.625 L59.25,29.625 L59.25,49.375 L59.25,49.375 Z M59.25,79 L79,79 L79,59.25 L59.25,59.25 L59.25,79 L59.25,79 Z" id="Shape"></path>
            </g>
        </g>
    </g>
</svg>