<?xml version="1.0" encoding="UTF-8" standalone="no"?>
<svg width="56px" height="56px" viewBox="0 0 56 56" version="1.1" xmlns="http://www.w3.org/2000/svg" xmlns:xlink="http://www.w3.org/1999/xlink">
    <!-- Generator: Sketch 3.7.2 (28276) - http://www.bohemiancoding.com/sketch -->
    <title>volume-up</title>
    <desc>Created with Sketch.</desc>
    <defs></defs>
    <g id="Facilitator_Mobile" stroke="none" stroke-width="1" fill="none" fill-rule="evenodd" opacity="0.506354944">
        <g id="A_m_PORT_CompCall" transform="translate(-54.000000, -1196.000000)" fill="#FFFFFF">
            <g id="volume-up" transform="translate(54.000000, 1196.000000)">
                <path d="M0,18.6666667 L0,37.3333333 L12.4444444,37.3333333 L28,52.8888889 L28,3.11111111 L12.4444444,18.6666667 L0,18.6666667 L0,18.6666667 Z M42,28 C42,22.4 38.8888889,17.7333333 34.2222222,15.5555556 L34.2222222,40.4444444 C38.8888889,38.2666667 42,33.6 42,28 L42,28 Z M34.2222222,0.622222222 L34.2222222,7.15555556 C43.2444444,9.95555556 49.7777778,18.0444444 49.7777778,28 C49.7777778,37.9555556 43.2444444,46.0444444 34.2222222,48.8444444 L34.2222222,55.3777778 C46.6666667,52.5777778 56,41.3777778 56,28 C56,14.6222222 46.6666667,3.42222222 34.2222222,0.622222222 L34.2222222,0.622222222 Z" id="Shape"></path>
            </g>
        </g>
    </g>
</svg>