<?xml version="1.0" encoding="UTF-8" standalone="no"?>
<svg width="57px" height="57px" viewBox="0 0 57 57" version="1.1" xmlns="http://www.w3.org/2000/svg" xmlns:xlink="http://www.w3.org/1999/xlink">
    <!-- Generator: Sketch 3.7.2 (28276) - http://www.bohemiancoding.com/sketch -->
    <title>add-circle</title>
    <desc>Created with Sketch.</desc>
    <defs></defs>
    <g id="Facilitator_Mobile" stroke="none" stroke-width="1" fill="none" fill-rule="evenodd" opacity="0.507462687">
        <g id="A_m_PORT_CompCall" transform="translate(-498.000000, -1196.000000)" fill="#FFFFFF">
            <g id="add-circle" transform="translate(498.000000, 1196.000000)">
                <path d="M28.5,0 C12.825,0 0,12.825 0,28.5 C0,44.175 12.825,57 28.5,57 C44.175,57 57,44.175 57,28.5 C57,12.825 44.175,0 28.5,0 L28.5,0 Z M42.75,31.35 L31.35,31.35 L31.35,42.75 L25.65,42.75 L25.65,31.35 L14.25,31.35 L14.25,25.65 L25.65,25.65 L25.65,14.25 L31.35,14.25 L31.35,25.65 L42.75,25.65 L42.75,31.35 L42.75,31.35 Z" id="Shape"></path>
            </g>
        </g>
    </g>
</svg>