<?xml version="1.0" encoding="UTF-8" standalone="no"?>
<svg width="87px" height="33px" viewBox="0 0 87 33" version="1.1" xmlns="http://www.w3.org/2000/svg" xmlns:xlink="http://www.w3.org/1999/xlink">
    <!-- Generator: Sketch 3.7.2 (28276) - http://www.bohemiancoding.com/sketch -->
    <title>call</title>
    <desc>Created with Sketch.</desc>
    <defs></defs>
    <g id="Facilitator_Mobile" stroke="none" stroke-width="1" fill="none" fill-rule="evenodd">
        <g id="A_m_PORT_CompCall" transform="translate(-344.000000, -846.000000)" fill="#E01010">
            <g id="call" transform="translate(342.000000, 821.000000)">
                <path d="M26.6,41.3 C31.5,51.1 39.9,59.15 49.7,64.4 L57.4,56.7 C58.45,55.65 59.85,55.3 60.9,56 C64.75,57.4 68.95,58.1 73.5,58.1 C75.6,58.1 77,59.5 77,61.6 L77,73.5 C77,75.6 75.6,77 73.5,77 C40.6,77 14,50.4 14,17.5 C14,15.4 15.4,14 17.5,14 L29.75,14 C31.85,14 33.25,15.4 33.25,17.5 C33.25,21.7 33.95,25.9 35.35,30.1 C35.7,31.15 35.35,32.55 34.65,33.6 L26.6,41.3 L26.6,41.3 Z" id="Shape" transform="translate(45.500000, 45.500000) rotate(-225.000000) translate(-45.500000, -45.500000) "></path>
            </g>
        </g>
    </g>
</svg>