<?xml version="1.0" encoding="UTF-8" standalone="no"?>
<svg width="58px" height="61px" viewBox="0 0 58 61" version="1.1" xmlns="http://www.w3.org/2000/svg" xmlns:xlink="http://www.w3.org/1999/xlink">
    <!-- Generator: Sketch 3.7.2 (28276) - http://www.bohemiancoding.com/sketch -->
    <title>mic-off</title>
    <desc>Created with Sketch.</desc>
    <defs></defs>
    <g id="Facilitator_Mobile" stroke="none" stroke-width="1" fill="none" fill-rule="evenodd" opacity="0.492537313">
        <g id="A_m_PORT_CompCall" transform="translate(-191.000000, -1191.000000)" fill="#FFFFFF">
            <g id="mic-off" transform="translate(191.000000, 1191.000000)">
                <path d="M51.5555556,28.8947368 L46.0777778,28.8947368 C46.0777778,31.1421053 45.4333333,33.3894737 44.7888889,35.3157895 L48.6555556,39.1684211 C50.5888889,36.2789474 51.5555556,32.7473684 51.5555556,28.8947368 L51.5555556,28.8947368 Z" id="Shape"></path>
                <path d="M38.6666667,29.5368421 L38.6666667,28.8947368 L38.6666667,9.63157895 C38.6666667,4.17368421 34.4777778,0 29,0 C23.5222222,0 19.3333333,4.17368421 19.3333333,9.63157895 L19.3333333,10.2736842 L38.6666667,29.5368421 L38.6666667,29.5368421 Z" id="Shape"></path>
                <path d="M4.18888889,3.21052632 L0,7.38421053 L19.3333333,26.6473684 L19.3333333,28.8947368 C19.3333333,34.3526316 23.5222222,38.5263158 29,38.5263158 C29.6444444,38.5263158 30.2888889,38.5263158 31.2555556,38.2052632 L36.7333333,43.6631579 C34.4777778,44.6263158 31.9,45.2684211 29.3222222,45.2684211 C20.3,45.2684211 12.2444444,38.5263158 12.2444444,28.8947368 L6.44444444,28.8947368 C6.44444444,39.8105263 15.1444444,48.8 25.7777778,50.4052632 L25.7777778,61 L32.2222222,61 L32.2222222,50.4052632 C35.1222222,50.0842105 38.0222222,48.8 40.2777778,47.5157895 L53.8111111,61 L58,56.8263158 L4.18888889,3.21052632 L4.18888889,3.21052632 Z" id="Shape"></path>
            </g>
        </g>
    </g>
</svg>