<?xml version="1.0" encoding="UTF-8" standalone="no"?>
<svg width="31px" height="30px" viewBox="0 0 31 30" version="1.1" xmlns="http://www.w3.org/2000/svg" xmlns:xlink="http://www.w3.org/1999/xlink">
    <!-- Generator: Sketch 3.7.2 (28276) - http://www.bohemiancoding.com/sketch -->
    <title>call</title>
    <desc>Created with Sketch.</desc>
    <defs></defs>
    <g id="Facilitator_Desktop" stroke="none" stroke-width="1" fill="none" fill-rule="evenodd">
        <g id="A_d_PORT_2.1" transform="translate(-1657.000000, -1211.000000)" fill="#333333">
            <g id="Group-3" transform="translate(868.000000, 1173.000000)">
                <g id="call" transform="translate(789.219000, 38.000000)">
                    <path d="M6,13 C8.33333333,17.6666667 12.3333333,21.5 17,24 L20.6666667,20.3333333 C21.1666667,19.8333333 21.8333333,19.6666667 22.3333333,20 C24.1666667,20.6666667 26.1666667,21 28.3333333,21 C29.3333333,21 30,21.6666667 30,22.6666667 L30,28.3333333 C30,29.3333333 29.3333333,30 28.3333333,30 C12.6666667,30 0,17.3333333 0,1.66666667 C0,0.666666667 0.666666667,0 1.66666667,0 L7.5,0 C8.5,0 9.16666667,0.666666667 9.16666667,1.66666667 C9.16666667,3.66666667 9.5,5.66666667 10.1666667,7.66666667 C10.3333333,8.16666667 10.1666667,8.83333333 9.83333333,9.33333333 L6,13 L6,13 Z" id="Shape"></path>
                </g>
            </g>
        </g>
    </g>
</svg>