<?xml version="1.0" encoding="utf-8"?>
<!-- Generator: Adobe Illustrator 21.0.0, SVG Export Plug-In . SVG Version: 6.00 Build 0)  -->
<svg version="1.1" xmlns="http://www.w3.org/2000/svg" xmlns:xlink="http://www.w3.org/1999/xlink" x="0px" y="0px"
	 viewBox="0 0 194 194" style="enable-background:new 0 0 194 194;" xml:space="preserve">
<style type="text/css">
	.st0{fill:#EFEFEF;}
	.st1{fill:#ADADAD;}
	.st2{fill:#9E9E9E;}
</style>
<g id="Layer_2">
	<path class="st0" d="M185,189H9c-2.2,0-4-1.8-4-4V9c0-2.2,1.8-4,4-4h176c2.2,0,4,1.8,4,4v176C189,187.2,187.2,189,185,189z"/>
</g>
<g id="Layer_1">
	<g>
		<g>
			<path class="st1" d="M115.7,57.8H78c-1.2,0-2.1,1-2.1,2.1s1,2.1,2.1,2.1h37.7c1.2,0,2.1-1,2.1-2.1
				C117.8,58.7,116.8,57.8,115.7,57.8z"/>
		</g>
	</g>
	<g>
		<g>
			<path class="st1" d="M115.7,70.6H78c-1.2,0-2.1,1-2.1,2.1c0,1.2,1,2.1,2.1,2.1h37.7c1.2,0,2.1-1,2.1-2.1
				C117.8,71.6,116.8,70.6,115.7,70.6z"/>
		</g>
	</g>
	<g>
		<g>
			<path class="st2" d="M130.9,47c0-0.5-0.2-1.1-0.6-1.4L114,29.3c-0.4-0.4-0.9-0.6-1.5-0.6H67.2c-2.5,0-4.5,2-4.5,4.5l0,53.1
				c0,0,0,0,0,0.1c0,1.1,0.6,2.1,1.5,2.6l7.3,4.6c2.4,1.5,5.4,1.5,7.9,0l5-3.1c1-0.6,2.3-0.6,3.4,0l5,3.1c1.2,0.8,2.6,1.1,3.9,1.1
				c1.4,0,2.7-0.4,3.9-1.1l5-3.1c1-0.6,2.3-0.6,3.4,0l5,3.1c2.4,1.5,5.4,1.5,7.9,0l7.3-4.6c0.9-0.6,1.5-1.5,1.5-2.6c0,0,0,0,0-0.1
				L130.9,47C130.9,47,130.9,47,130.9,47z M114.6,35.9L114.6,35.9l9,9h-8.8c-0.1,0-0.2-0.1-0.2-0.2L114.6,35.9L114.6,35.9z
				 M126.6,85.6l-6.8,4.2c-1,0.6-2.3,0.6-3.4,0l-5-3.1c-2.4-1.5-5.4-1.5-7.9,0l-5,3.1c-1,0.6-2.3,0.6-3.4,0l-5-3.1
				c-2.4-1.5-5.4-1.5-7.9,0l-5,3.1c-1,0.6-2.3,0.6-3.4,0L67,85.6l0-52.5c0-0.1,0.1-0.2,0.2-0.2h43.1v11.8c0,2.5,2,4.5,4.5,4.5h11.8
				L126.6,85.6z"/>
		</g>
	</g>
	<g>
		<g>
			<path class="st2" d="M130.9,98.9C130.9,98.9,130.9,98.9,130.9,98.9C130.9,98.9,130.9,98.9,130.9,98.9c0-1.2-0.6-2.3-1.6-2.8
				c-1-0.6-2.3-0.5-3.2,0.1l-6.3,3.9c-1,0.6-2.2,0.6-3.2,0l-5.2-3.2c-2.4-1.5-5.3-1.5-7.7,0l-5.2,3.2c-1,0.6-2.2,0.6-3.2,0L90,96.9
				c-2.4-1.5-5.3-1.5-7.7,0l-5.2,3.2c-1,0.6-2.2,0.6-3.2,0l-6.3-3.9c-1-0.6-2.2-0.6-3.2-0.1c-1,0.6-1.6,1.6-1.6,2.8c0,0,0,0,0,0
				c0,0,0,0,0,0l0,16.1c0,2.5,2,4.5,4.5,4.5h59.2c2.5,0,4.5-2,4.5-4.5L130.9,98.9z M126.4,115.3H67.2c-0.1,0-0.2-0.1-0.2-0.2l0-14.2
				l4.7,2.9c2.4,1.5,5.3,1.5,7.7,0l5.2-3.2c1-0.6,2.2-0.6,3.2,0l5.2,3.2c1.2,0.7,2.5,1.1,3.9,1.1c1.3,0,2.7-0.4,3.9-1.1l5.2-3.2
				c1-0.6,2.2-0.6,3.2,0l5.2,3.2c2.4,1.5,5.3,1.5,7.7,0l4.7-2.9l0,14.2C126.6,115.2,126.5,115.3,126.4,115.3z"/>
		</g>
	</g>
	<g>
		<path class="st2" d="M66.7,142.9H61v5.9h-1.8v-13.4h8.3v1.4H61v4.6h5.6V142.9z"/>
		<path class="st2" d="M71.6,148.9h-1.8v-13.4h1.8V148.9z"/>
		<path class="st2" d="M76.6,147.4H83v1.4h-8.1v-13.4h1.8V147.4z"/>
		<path class="st2" d="M92.6,142.6h-5.8v4.8h6.8v1.4H85v-13.4h8.4v1.4h-6.7v4.3h5.8V142.6z"/>
		<path class="st2" d="M110.7,148.9h-1.8l-6.8-10.3v10.3h-1.8v-13.4h1.8l6.8,10.4v-10.4h1.8V148.9z"/>
		<path class="st2" d="M124.2,142.6c0,1.3-0.2,2.5-0.7,3.4s-1.1,1.7-1.9,2.2s-1.8,0.8-2.8,0.8c-1.1,0-2-0.3-2.8-0.8
			c-0.8-0.5-1.5-1.3-1.9-2.2c-0.5-1-0.7-2.1-0.7-3.3v-1c0-1.3,0.2-2.4,0.7-3.4c0.4-1,1.1-1.7,1.9-2.3c0.8-0.5,1.8-0.8,2.8-0.8
			c1.1,0,2,0.3,2.8,0.8c0.8,0.5,1.5,1.3,1.9,2.3c0.4,1,0.7,2.1,0.7,3.4V142.6z M122.4,141.7c0-1.6-0.3-2.8-1-3.7s-1.5-1.3-2.7-1.3
			c-1.1,0-2,0.4-2.6,1.3c-0.6,0.9-1,2-1,3.5v1c0,1.5,0.3,2.8,1,3.6c0.6,0.9,1.5,1.3,2.7,1.3c1.1,0,2-0.4,2.7-1.2
			c0.6-0.8,0.9-2,1-3.6V141.7z"/>
		<path class="st2" d="M135.9,136.9h-4.3v12h-1.8v-12h-4.3v-1.4h10.4V136.9z"/>
		<path class="st2" d="M58,168h-5.6l-1.3,3.5h-1.8l5.1-13.4H56l5.1,13.4h-1.8L58,168z M52.9,166.6h4.6l-2.3-6.3L52.9,166.6z"/>
		<path class="st2" d="M66.5,169.2l3.8-11.1h1.9l-5,13.4h-1.6l-5-13.4h1.9L66.5,169.2z"/>
		<path class="st2" d="M80.8,168h-5.6l-1.3,3.5h-1.8l5.1-13.4h1.5l5.1,13.4h-1.8L80.8,168z M75.7,166.6h4.6l-2.3-6.3L75.7,166.6z"/>
		<path class="st2" d="M87.6,171.5h-1.8v-13.4h1.8V171.5z"/>
		<path class="st2" d="M92.7,170.1H99v1.4h-8.1v-13.4h1.8V170.1z"/>
		<path class="st2" d="M108.6,168H103l-1.3,3.5h-1.8l5.1-13.4h1.5l5.1,13.4h-1.8L108.6,168z M103.5,166.6h4.6l-2.3-6.3L103.5,166.6z
			"/>
		<path class="st2" d="M113.5,171.5v-13.4h4.4c1.5,0,2.6,0.3,3.3,0.9s1.1,1.5,1.1,2.7c0,0.6-0.2,1.2-0.5,1.7s-0.8,0.9-1.5,1.1
			c0.7,0.2,1.3,0.6,1.7,1.2c0.4,0.6,0.6,1.2,0.6,2c0,1.2-0.4,2.2-1.2,2.8c-0.8,0.7-1.9,1-3.3,1H113.5z M115.3,163.8h2.7
			c0.8,0,1.4-0.2,1.9-0.6c0.5-0.4,0.7-0.9,0.7-1.6c0-0.7-0.2-1.3-0.6-1.6c-0.4-0.3-1.1-0.5-2-0.5h-2.6V163.8z M115.3,165.2v4.8h2.9
			c0.8,0,1.5-0.2,2-0.6c0.5-0.4,0.7-1,0.7-1.8c0-1.6-0.9-2.4-2.6-2.4H115.3z"/>
		<path class="st2" d="M127.1,170.1h6.4v1.4h-8.1v-13.4h1.8V170.1z"/>
		<path class="st2" d="M143,165.3h-5.8v4.8h6.8v1.4h-8.5v-13.4h8.4v1.4h-6.7v4.3h5.8V165.3z"/>
	</g>
</g>
</svg>
