<?xml version="1.0" encoding="utf-8"?>
<!-- Generator: Adobe Illustrator 21.0.0, SVG Export Plug-In . SVG Version: 6.00 Build 0)  -->
<svg version="1.1" id="Layer_1" xmlns="http://www.w3.org/2000/svg" xmlns:xlink="http://www.w3.org/1999/xlink" x="0px" y="0px"
	 viewBox="0 0 184.1 44.9" style="enable-background:new 0 0 184.1 44.9;" xml:space="preserve">
<style type="text/css">
	.st0{fill:#fff;}
	.st1{fill:#fff;}
</style>
<path class="st0" d="M128.1,12.9c0-0.6-0.1-1.3-0.4-1.9c-0.2-0.6-0.6-1.2-1-1.7c-0.4-0.4-1-0.8-1.6-1.1c-0.6-0.2-1.2-0.4-1.9-0.4
	c-0.6,0-1.2,0.1-1.9,0.4c-0.6,0.3-1.1,0.6-1.6,1.1c-0.4,0.5-0.8,1-1,1.7c-0.3,0.6-0.4,1.2-0.4,1.9c0,0.7,0.1,1.3,0.4,1.9
	c0.2,0.6,0.6,1.1,1,1.6c0.5,0.5,1,0.9,1.6,1.1c0.6,0.2,1.2,0.4,1.9,0.4c0.6,0,1.3-0.1,1.9-0.4c0.6-0.2,1.1-0.6,1.6-1.1
	c0.4-0.5,0.8-1,1-1.6C127.9,14.2,128.1,13.5,128.1,12.9z M130.3,12.9c0,0.9-0.2,1.9-0.6,2.7c-0.3,0.9-0.9,1.7-1.5,2.3
	c-0.7,0.6-1.4,1.2-2.3,1.5c-0.9,0.4-1.8,0.5-2.7,0.5c-0.9,0-1.9-0.1-2.7-0.5c-0.9-0.4-1.6-0.9-2.3-1.5c-0.6-0.6-1.2-1.4-1.5-2.2
	c-0.4-0.9-0.5-1.7-0.5-2.7c0-0.9,0.1-1.8,0.5-2.7c0.4-0.9,0.9-1.6,1.5-2.3c0.7-0.6,1.4-1.2,2.3-1.4c0.9-0.4,1.8-0.6,2.7-0.6
	c1,0,1.9,0.2,2.7,0.6c0.9,0.3,1.7,0.8,2.3,1.4c0.6,0.7,1.2,1.4,1.5,2.3C130.1,11.1,130.3,12,130.3,12.9z M132.8,19.5V5.7l8.5,8.1
	c0.2,0.2,0.4,0.5,0.6,0.7c0.3,0.3,0.5,0.6,0.8,0.9V6.3h1.9V20l-8.6-8.3c-0.3-0.2-0.5-0.4-0.7-0.6c-0.2-0.3-0.4-0.5-0.6-0.8v9.2
	H132.8z M147.7,19.5V6.3h2.2v11.3h4.8v1.9H147.7z M156.5,19.5V6.3h2.2v13.2H156.5z M161.8,19.5V5.7l8.4,8.1c0.2,0.2,0.4,0.5,0.7,0.7
	c0.2,0.3,0.5,0.6,0.7,0.9V6.3h2V20l-8.6-8.3c-0.2-0.2-0.4-0.4-0.6-0.6c-0.2-0.3-0.4-0.5-0.6-0.8v9.2H161.8z M176.7,19.5V6.3h7.4v1.8
	h-5.3v3.3h5.3v1.9h-5.3v4.2h5.3v1.9H176.7z M118.8,31.5h0.4c1.2,0,1.9-0.1,2.3-0.4c0.4-0.3,0.5-0.7,0.5-1.4c0-0.8-0.1-1.3-0.6-1.6
	c-0.4-0.3-1.2-0.4-2.2-0.4h-0.4V31.5z M118.7,33.2v6h-2V25.8h3c0.9,0,1.6,0.1,2.1,0.1c0.5,0.1,0.9,0.4,1.2,0.6
	c0.4,0.4,0.7,0.8,1,1.3c0.2,0.5,0.3,1,0.3,1.7c0,1.1-0.2,1.9-0.8,2.5c-0.5,0.6-1.2,0.9-2.2,1.1l4.5,6h-2.4l-4.4-6H118.7z
	 M129.2,31.4h0.6c1.2,0,2-0.1,2.4-0.4c0.4-0.3,0.6-0.7,0.6-1.4c0-0.7-0.2-1.2-0.6-1.5c-0.4-0.3-1.2-0.4-2.4-0.4h-0.6V31.4z
	 M129.1,33.2v6h-2V25.8h3.3c0.9,0,1.7,0.1,2.1,0.1c0.5,0.1,0.9,0.3,1.2,0.5c0.4,0.4,0.7,0.7,1,1.3c0.2,0.5,0.3,1.1,0.3,1.7
	s-0.1,1.2-0.3,1.7c-0.3,0.5-0.6,0.9-1,1.2c-0.4,0.3-0.7,0.4-1.2,0.6c-0.4,0.1-1.2,0.1-2.1,0.1H130H129.1z M137,39.2V25.8h2.2v11.4
	h4.8v1.9H137z"/>
<path class="st1" d="M50.1,5.2c9.5,0,17.2,7.7,17.2,17.2c0,4.9-2,9.3-5.3,12.5l2.5,2.7l15-32.4l3.1,6.6l0,0l13,27.9h-6.1l-3.8-8.3
	H73.6l-4.8,10.4h-0.3h-5.9h-1.1l-3.7-4c-2.3,1.2-5,1.9-7.7,1.9c-7.7,0-14.2-5-16.4-12c-2.2,7-8.7,12-16.4,12C7.8,39.7,0,32,0,22.4
	C0,12.9,7.8,5.2,17.3,5.2c5.3,0,10,2.4,13.1,6.1l0,0l-4.5,3.5c-2.2-2.4-5.3-3.9-8.6-3.9c-6.4,0-11.6,5.2-11.6,11.5
	c0,6.4,5.2,11.6,11.6,11.6c4.9,0,9.1-3,10.7-7.3h-7.7v-5h12.6C33.3,12.5,40.8,5.2,50.1,5.2z M83.5,26.6l-3.9-8.3l-3.8,8.3H83.5z
	 M54.5,26.6l3.7,4c2.2-2.1,3.5-5,3.5-8.3c0-6.3-5.2-11.5-11.5-11.5c-6.4,0-11.6,5.2-11.6,11.5c0,6.4,5.2,11.6,11.6,11.6
	c1.2,0,2.4-0.2,3.6-0.6l-6.2-6.8H54.5z"/>
<g>
	<rect x="103.8" class="st0" width="1.4" height="44.9"/>
</g>
</svg>
