<?xml version="1.0" encoding="utf-8"?>
<!-- Generator: Adobe Illustrator 21.0.0, SVG Export Plug-In . SVG Version: 6.00 Build 0)  -->
<svg version="1.1" id="Layer_1" xmlns="http://www.w3.org/2000/svg" xmlns:xlink="http://www.w3.org/1999/xlink" x="0px" y="0px"
	 viewBox="0 0 204.6 86.7" style="enable-background:new 0 0 204.6 86.7;" xml:space="preserve">
<style type="text/css">
	.st0{fill:#333333;}
	.st1{fill:#E7302A;}
	.st2{fill:#FFFFFF;}
</style>
<g id="Layer_x0020_1">
	<g id="_2055437340720">
		<path class="st0" d="M106.5,20.3h6c0,0.1,0.1,0.3,0.1,0.4c0,0.5,0,0.9,0,1c0,2.2-0.6,3.7-1.8,5c-1.2,1.2-3,1.7-5.2,1.7
			c-1.2,0-2.3-0.1-3.3-0.5c-0.9-0.4-1.8-0.9-2.5-1.7c-0.7-0.7-1.3-1.6-1.7-2.6c-0.4-1-0.6-2-0.6-3.2c0-1.2,0.2-2.2,0.6-3.2
			c0.4-0.9,1-1.8,1.7-2.5c0.7-0.7,1.6-1.3,2.6-1.7c1-0.4,2.1-0.6,3.2-0.6c1.2,0,2.3,0.2,3.2,0.6c0.9,0.4,1.7,1.1,2.4,2l-1.7,1.4
			c-0.6-0.6-1.1-1.1-1.7-1.4c-0.6-0.3-1.4-0.4-2.2-0.4c-1.7,0-3,0.6-4,1.6c-1,1.1-1.5,2.4-1.5,4.1c0,1.7,0.5,3.1,1.5,4.2
			c1.1,1,2.4,1.6,4,1.6c1.4,0,2.5-0.4,3.3-1c0.8-0.6,1.2-1.5,1.2-2.7v-0.2h-3.7V20.3z M115.1,28.1V13h8.4V15h-6v3.7h6V21h-6v4.9h6
			v2.2H115.1z M131.3,15v13h-2.4V15h-4V13h10.4V15H131.3z M108.3,45.4l1.4,1.6c0.5-0.6,0.8-1.2,1-1.7c0.2-0.6,0.4-1.3,0.4-1.9
			c0-0.8-0.1-1.5-0.4-2.2c-0.3-0.6-0.6-1.3-1.2-1.8c-0.6-0.5-1.2-0.9-1.9-1.2c-0.6-0.3-1.4-0.4-2.1-0.4c-0.7,0-1.4,0.1-2.1,0.4
			c-0.7,0.3-1.3,0.7-1.8,1.2s-0.9,1.2-1.2,1.8c-0.3,0.7-0.4,1.4-0.4,2.2c0,1.6,0.5,2.9,1.6,4s2.4,1.7,4,1.7c0.4,0,0.9-0.1,1.2-0.1
			c0.4-0.1,0.8-0.3,1.2-0.4l-2.7-3H108.3z M111.4,48.8l3.2,3.5h-2.9l-2-2.2c-0.6,0.4-1.4,0.6-2,0.9c-0.7,0.1-1.4,0.2-2.2,0.2
			c-1,0-2-0.1-3-0.6c-1-0.4-1.9-1-2.6-1.7c-0.8-0.7-1.4-1.6-1.8-2.5c-0.4-0.9-0.6-1.9-0.6-3s0.2-2.2,0.6-3.1c0.4-0.9,1-1.8,1.8-2.5
			c0.7-0.8,1.6-1.3,2.6-1.7c1-0.4,2-0.6,3.1-0.6s2.2,0.2,3.1,0.6c1,0.4,1.9,0.9,2.6,1.7c0.8,0.7,1.4,1.6,1.8,2.5
			c0.4,1,0.6,2,0.6,3.1c0,1-0.1,2-0.6,3C112.7,47.2,112.1,48.1,111.4,48.8z M116.4,35.8h2.4v9.1c0,1.4,0.4,2.4,0.9,3.1
			c0.6,0.6,1.6,1,2.9,1c1.2,0,2.2-0.4,2.8-1c0.6-0.7,0.9-1.7,0.9-3.1v-9.1h2.4v9.4c0,2-0.5,3.6-1.6,4.6c-1,1-2.6,1.5-4.6,1.5
			c-2.1,0-3.7-0.5-4.7-1.5s-1.5-2.5-1.5-4.6V35.8z M135,44.9h4.2l-1.6-3.5c-0.1-0.2-0.2-0.5-0.3-0.7c-0.1-0.3-0.2-0.6-0.3-1
			c-0.1,0.4-0.1,0.6-0.3,0.9c-0.1,0.3-0.1,0.6-0.2,0.8L135,44.9z M141.8,50.8l-1.7-3.9h-6l-1.7,3.9h-2.6l7.3-15.7l7.3,15.7H141.8z
			 M145.8,50.8v-15h2.4v12.9h5.5v2.2H145.8z M155.8,50.8v-15h2.4v15H155.8z M161.8,50.8v-15h8.4v2.1h-6v3.7h6v2.2h-6v7.1H161.8z
			 M172.9,50.8v-15h2.5v15H172.9z M178.9,50.8v-15h8.4v2.1h-6v3.7h6v2.2h-6v4.9h6v2.2H178.9z M192.6,48.7h2.1c1.1,0,1.9-0.1,2.5-0.3
			c0.6-0.1,1.1-0.4,1.5-0.7c0.6-0.5,1-1.1,1.3-1.9c0.2-0.7,0.4-1.5,0.4-2.5c0-0.9-0.1-1.8-0.4-2.5c-0.3-0.7-0.7-1.3-1.3-1.8
			c-0.4-0.4-0.9-0.6-1.6-0.8c-0.6-0.1-1.5-0.2-2.7-0.2h-0.9h-0.9V48.7z M190.1,50.8v-15h3.3c2.2,0,3.7,0.1,4.5,0.3s1.7,0.6,2.3,1.1
			c0.9,0.6,1.5,1.5,2,2.6c0.4,1,0.6,2.2,0.6,3.6c0,1.3-0.2,2.5-0.6,3.5c-0.5,1-1.2,1.9-2,2.6c-0.6,0.5-1.4,0.9-2.2,1.1
			c-0.9,0.2-2.2,0.3-4,0.3h-0.6H190.1z M101.3,67.7h4.2l-1.6-3.5c-0.1-0.2-0.1-0.5-0.2-0.8c-0.1-0.3-0.2-0.6-0.3-0.9
			c-0.1,0.4-0.2,0.6-0.3,0.9s-0.2,0.5-0.3,0.8L101.3,67.7z M108.1,73.7l-1.7-3.9h-6l-1.8,3.9h-2.5l7.3-15.7l7.3,15.7H108.1z
			 M112.1,58.5h2.4v9.2c0,1.4,0.4,2.4,1,3c0.6,0.7,1.5,1.1,2.8,1.1c1.2,0,2.2-0.4,2.8-1.1c0.6-0.6,0.9-1.7,0.9-3v-9.2h2.4V68
			c0,2-0.5,3.5-1.6,4.6c-1,1-2.5,1.5-4.6,1.5c-2.1,0-3.7-0.5-4.7-1.5s-1.5-2.6-1.5-4.6V58.5z M127,70.6l1.9-0.9
			c0.2,0.7,0.5,1.2,1,1.6c0.5,0.4,1.2,0.5,1.9,0.5c0.7,0,1.3-0.2,1.7-0.6c0.4-0.4,0.6-0.9,0.6-1.7c0-0.9-0.7-1.7-2.2-2.4
			c-0.2-0.1-0.4-0.1-0.4-0.2c-1.7-0.8-2.8-1.5-3.4-2.2c-0.5-0.6-0.8-1.4-0.8-2.4c0-1.2,0.4-2.2,1.2-3c0.9-0.7,1.9-1.2,3.3-1.2
			c1.1,0,2,0.2,2.8,0.6c0.7,0.4,1.2,1.1,1.5,1.9l-1.9,1c-0.3-0.5-0.6-0.9-1-1.1c-0.4-0.2-0.8-0.3-1.2-0.3c-0.7,0-1.2,0.1-1.6,0.5
			c-0.4,0.4-0.6,0.8-0.6,1.4c0,0.9,0.8,1.8,2.5,2.5c0.1,0.1,0.2,0.1,0.4,0.1c1.4,0.7,2.5,1.4,3,2.1c0.6,0.6,0.9,1.4,0.9,2.4
			c0,1.4-0.4,2.5-1.4,3.4c-0.9,0.9-2.1,1.3-3.7,1.3c-1.3,0-2.3-0.3-3.2-0.9C127.8,72.6,127.2,71.7,127,70.6z M144.4,60.6v13h-2.4
			v-13h-4v-2.1h10.4v2.1H144.4z M152.6,65h0.5c1.3,0,2.2-0.1,2.6-0.5c0.4-0.3,0.6-0.8,0.6-1.6s-0.3-1.4-0.7-1.7
			c-0.4-0.4-1.3-0.5-2.5-0.5h-0.5V65z M152.5,66.9v6.8h-2.3V58.5h3.5c1,0,1.8,0.1,2.3,0.2c0.6,0.1,1.1,0.4,1.4,0.6
			c0.5,0.4,0.9,0.9,1.1,1.4c0.3,0.6,0.4,1.2,0.4,1.9c0,1.2-0.4,2.2-0.9,2.8c-0.6,0.7-1.4,1.2-2.6,1.3l5.3,6.8h-2.8l-5-6.8H152.5z
			 M165.2,67.7h4.2l-1.6-3.5c-0.1-0.2-0.1-0.5-0.3-0.8c-0.1-0.3-0.1-0.6-0.3-0.9c-0.1,0.4-0.1,0.6-0.2,0.9c-0.1,0.3-0.2,0.5-0.3,0.8
			L165.2,67.7z M172,73.7l-1.7-3.9h-6l-1.8,3.9H160l7.3-15.7l7.3,15.7H172z M176,73.7V58.5h2.4v13h5.5v2.2H176z M186,73.7V58.5h2.4
			v15.1H186z M195.2,67.7h4.2l-1.6-3.5c-0.1-0.2-0.1-0.5-0.3-0.8c-0.1-0.3-0.1-0.6-0.3-0.9c-0.1,0.4-0.1,0.6-0.2,0.9
			c-0.1,0.3-0.2,0.5-0.3,0.8L195.2,67.7z M202,73.7l-1.7-3.9h-6l-1.8,3.9h-2.6l7.3-15.7l7.3,15.7H202z"/>
		<g>
			<path class="st1" d="M43.3,0c23.9,0,43.3,19.4,43.3,43.3c0,23.9-19.4,43.3-43.3,43.3S0,67.2,0,43.3C0,19.4,19.4,0,43.3,0z"/>
			<path class="st2" d="M45.1,29.7c7.6,0,13.7,6.1,13.7,13.6c0,3.9-1.7,7.4-4.2,9.9l2,2.2l12-25.7l2.4,5.2l0,0L81.3,57h-4.8l-3-6.5
				h-9.6l-3.9,8.3h-0.1H55h-0.9l-2.9-3.2c-1.9,0.9-4,1.4-6.1,1.4c-6.1,0-11.3-4-13-9.5c-1.8,5.5-7,9.5-13,9.5
				c-7.6,0-13.7-6.1-13.7-13.7c0-7.5,6.1-13.6,13.7-13.6c4.2,0,7.9,1.9,10.4,4.8l0,0l-3.6,2.7c-1.7-1.9-4.2-3.1-6.8-3.1
				c-5.1,0-9.2,4.1-9.2,9.1c0,5.1,4.1,9.2,9.2,9.2c3.8,0,7.1-2.4,8.5-5.8h-6.1v-4h10C31.8,35.4,37.8,29.7,45.1,29.7z M71.6,46.7
				l-3-6.6l-3.1,6.6H71.6z M48.7,46.7l2.9,3.2c1.7-1.7,2.7-4,2.7-6.6c0-5-4.1-9.1-9.1-9.1c-5.1,0-9.2,4.1-9.2,9.1
				c0,5.1,4.1,9.2,9.2,9.2c1,0,1.9-0.1,2.9-0.5l-5-5.3H48.7z"/>
		</g>
	</g>
</g>
</svg>
